<?xml version="1.0" encoding="UTF-8"?>
<svg id="_图层_2" data-name="图层 2" xmlns="http://www.w3.org/2000/svg" viewBox="0 0 325.23 488.19">
  <defs>
    <style>
      .cls-1 {
        stroke: #fff;
        stroke-miterlimit: 10;
        stroke-width: 14px;
      }
    </style>
  </defs>
  <g id="_图层_3" data-name="图层 3">
    <g>
      <path class="cls-1" d="m76.39,83.36h0c-2.51,1.37-4.32,3.75-4.97,6.54l-49.29,211.27-14.98,80.51s4.32,17.71,27.94,9.08c23.62-8.63,17.33-11.24,20.57-11.81s17.02,17.71,17.02,17.71c0,0,7.17-.19,8.32,1.9s13.9,22.29,25.33,60.57c26.86,23.81,39.24-11.43,39.24-11.43l1.71-24.19s18.67,40.38,17.14,50.48,31.81,11.62,41.9-8.95c10.1-20.57,3.95-35.2,12.76-45.71,9.52-11.37,6.31-3.15,20.83-13.9,18.25-4.68,14.32-4.73,18.03-1.4,0,0,14.35,7.37,24,5.02,14.81-3.61,19.62-3.05,15.81-23.24-3.81-20.19-12.76-16-9.52-35.81,3.24-19.81-8.36-28.87-8.19-33.33.29-7.52,3.61-30.15,1.33-37.9-3.52-12-2.86-18.67-2.86-18.67l10.67-15.62,27.81-106.86-54.67-25.9,4.19-5.14s7.13.33-.11.14,45.83-27.76,48.49-48.9-39.64-53.29-93.34,4.6c-3.28,3.53-6.9,6.75-10.88,9.47-5.93,4.06-5.68,6.7-5.68,6.7h0c-2.07,4.2-5.77,7.36-10.24,8.74l-2.09.64h0c-3.89,2.45-8.49,3.51-13.06,3.01l-15.85-1.73c-.89-.1-1.79-.1-2.69,0-1.85.2-5.84.32-8.48-1.18-.93-.52,1.42-1.4.98-2.37-.73-1.61-1.38-1.82-.67-2.44,1.12-.98.09-2.95.51-4.38,2.79-9.56,11.89-36.67,20.1-47.71.81-1.08,1.86-6.96,1.83-8.31-.37-16.62-40.83-38.42-72.24,41.64-1.07,2.26-1.8,4.31-2.3,6.08-1.14,4.04-4.31,7.17-8.37,8.21h0s-4.73.63-4.73.63l-11.3,3.97Z"/>
      <ellipse class="cls-1" cx="101.76" cy="181.5" rx="27.49" ry="19" transform="translate(-103.02 218.41) rotate(-70.94)"/>
      <ellipse class="cls-1" cx="166.51" cy="194.96" rx="29.12" ry="20.66" transform="translate(-72.14 288.67) rotate(-70.94)"/>
    </g>
  </g>
</svg>